<?xml version="1.0" encoding="utf-8"?>
<!-- Generator: Adobe Illustrator 21.1.0, SVG Export Plug-In . SVG Version: 6.00 Build 0)  -->
<svg version="1.1" xmlns="http://www.w3.org/2000/svg" xmlns:xlink="http://www.w3.org/1999/xlink" x="0px" y="0px"
	 viewBox="0 0 1200 600" style="enable-background:new 0 0 1200 600;" xml:space="preserve">
<style type="text/css">
	.st0{clip-path:url(#SVGID_2_);}
	.st1{fill:url(#SVGID_3_);}
	.st2{fill:#73C8F0;}
	.st3{fill:url(#SVGID_4_);}
	.st4{fill:#0091C8;}
	.st5{fill:url(#SVGID_5_);}
	.st6{fill:#0073AA;}
	.st7{fill:url(#SVGID_6_);}
	.st8{fill:#00558C;}
</style>
<g id="BACKGROUND">
</g>
<g id="OBJECTS">
</g>
<g id="DESIGNED_BY_FREEPIK">
	<g>
		<defs>
			<rect id="SVGID_1_" x="0.1" width="1199.9" height="600"/>
		</defs>
		<clipPath id="SVGID_2_">
			<use xlink:href="#SVGID_1_"  style="overflow:visible;"/>
		</clipPath>
		<g class="st0">
			<linearGradient id="SVGID_3_" gradientUnits="userSpaceOnUse" x1="600.0867" y1="139" x2="600.0867" y2="-379.4228">
				<stop  offset="0" style="stop-color:#AFE6FF"/>
				<stop  offset="1" style="stop-color:#7CE1F9"/>
			</linearGradient>
			<rect x="0.1" y="-377" class="st1" width="1200" height="1200"/>
			<g>
				<path class="st2" d="M1012,242V73.9l-9.6-9.9H994v-97l-2-2v-15h-8v7.1l-5-4.5V-60h-11v25h-10v82.3l-16,4.8L934.3,242H890v-17h30
					v-17h-30v-20h-17v-11h-44v11h-24v-12h3v-4h-3v-23h3v-4h-3v-23h3v-4h-3V95h3v-4h-3V68.9l11-11.5v-7.8l6-6V30h-6V18h-15V-3h15v-12
					h-1v-19.2c0-0.9,0-1.7,0-2.6c0-0.9,0-1.7,0-2.6c-2.3-1.5-4.7,1.5-7,0c0,1.7,0,3.5,0,5.2c2,1.2,4-0.7,6-0.4V-15h-12v-19.2
					c0-0.9,0-1.7,0-2.6c0-0.9,0-1.7,0-2.6c-2.3-1.5-4.7,1.5-7,0c0,1.7,0,3.5,0,5.2c2,1.2,4-0.7,6-0.4V-15h-12v-19.2
					c0-0.9,0-1.7,0-2.6c0-0.9,0-1.7,0-2.6c-2.3-1.5-4.7,1.5-7,0c0,1.7,0,3.5,0,5.2c2,1.2,4-0.7,6-0.4V-15h-12v-19.2
					c0-0.9,0-1.7,0-2.6c0-0.9,0-1.7,0-2.6c-2.3-1.5-4.7,1.5-7,0c0,1.7,0,3.5,0,5.2c2,1.2,4-0.7,6-0.4V-15h-12v-19.2
					c0-0.9,0-1.7,0-2.6c0-0.9,0-1.7,0-2.6c-2.3-1.5-4.7,1.5-7,0c0,1.7,0,3.7,0,5.4c2,1.2,4-0.6,6-0.4V-15h-1v12h15v21h-15v12h-6
					v13.6l6,5.9v7.8l11,11.3V91h-3v4h3v23h-3v4h3v23h-3v4h3v23h-3v4h3v12h-59v54H270.4L263,96.6c0-0.2,0-0.4,0-0.6
					c-1.1-4.7-18.6-4.6-39.9,0H199v7.3c-0.5,0.3-1.3,0.6-2,1V77h12V55h-10V45h-9V17h-2v-46h-1v28h-15v9h15v9h-2v8.4
					c-6.8,5-47.1,37.7-56.7,108.2c-10.5,76.8,22.4,105.7,23.8,106.9l0.6,0.5H0v443h1200V242H1012z M185,31.5V45h-11v11h-10v19h-12.9
					C163.6,50.9,178.4,37,185,31.5z M136.4,190l21.8-10.9l19.4,10.9H136.4z M177.1,194l-16.9,12.6L137.9,194H177.1z M156,174.6
					l-17-9.6h33L156,174.6z M138,161l21.4-10.7l19.1,10.7H138z M157.2,146.1l-18-10.1h35L157.2,146.1z M139.7,132l21.1-10.9l17,10.9
					H139.7z M144.8,103l20.5-10.5l13.2,10.5H144.8z M175,107l-16.3,10L143,107H175z M163.6,87.7l-11-8.7h25.1L163.6,87.7z
					 M149.4,79.5l12.2,9.7L140.7,102C143.2,93.7,146.2,86.2,149.4,79.5z M139.2,107.3l17.5,11.1l-22,13.5H134
					C135.3,123.2,137,114.9,139.2,107.3z M133.2,136h1.3l20.6,11.6L132.7,161h-1.3C131.5,153.3,132.1,145,133.2,136z M131.6,165h2.8
					l19.3,10.9l-20.2,12.1C132.5,181.1,131.8,173.5,131.6,165z M134.9,194.9l23.5,13.2l-15.2,11.4C140,213.1,137,205,134.9,194.9z
					 M179,237h-23.6c-1.3-1.3-4.9-5.2-8.8-12H179V237z M179,221h-33l16.7-10.4l16.4,9.2V221z M179,217l-14.2-8l14.2-8.9V217z
					 M179,197.5l-15,9.4l15-11.2V197.5z M179,187.6l-18.1-10.2l18.1-9.1V187.6z M179,165.6l-20.4,10.2l0,0l18.1-10.8h2.3V165.6z
					 M179,158.5l-16.9-9.5l16.9-8.5V158.5z M179,137.8l-19.2,9.6l0,0l19.1-11.4h0.2V137.8z M179,129.8l-15.6-9.9l15.6-8V129.8z
					 M179,109.3l-17.7,9.1l-0.1-0.1l17.8-11l-0.2-0.3h0.2V109.3z M179,99.9L167.9,91l11.1-5.7V99.9z M179,82.8l-13,6.7l-0.2-0.1
					l13.2-8.1V82.8z"/>
				<linearGradient id="SVGID_4_" gradientUnits="userSpaceOnUse" x1="600" y1="373.0995" x2="600" y2="-173.2024">
					<stop  offset="0" style="stop-color:#FFFFFF"/>
					<stop  offset="8.266079e-02" style="stop-color:#FFFFFF;stop-opacity:0.9173"/>
					<stop  offset="1" style="stop-color:#FFFFFF;stop-opacity:0"/>
				</linearGradient>
				<rect y="-28" class="st3" width="1200" height="712"/>
				<path class="st4" d="M1178,256v-40h3v-43h-3v-4h3v-3h-3v-3h3v-4h-4v-4h-19v4h-11v-4h-17v4h-10v-3h-2v-36.1V111h-2v-7h-2v7h-1v9
					h-0.1c-1.2-17.7-11.7-32.4-25.9-37.4V69h3v-5h-4.3c0,0,0,0.1,0,0c0-4.4-3.3-8.1-7.8-8.7V45h4v-2h-4v-7h-2v7h-4v2h4v10.3
					c-4.6,0.6-7.9,4.3-7.9,8.7c0,0.1,0,0,0,0h-4.2v5h2v13.6c-14.2,5-24.7,19.7-25.9,37.4h-0.1v-9h-1v-7h-2v7h-1v8.9V156h-2v3h-10v-4
					h-18v4h-11v-4h-18v4h-4v4h3v3h-3v3h3v4h-3v43h3v4H791v-43h-66v-14h-22v-10h-62v10h-17v-33h3v-2h-3v-2h3v-2h-3v-2h3v-3h-3v-3h3
					v-2h-3V99h3v-2h-3v-1h3v-2h-3v-2h3v-3h-3v-5h3v-3h-3V53h3v-3h-3v-4h3v-3h-3v-3h-2v-4h1v-7h-2v-5h-4v5h-1v7h1v4h-3V22h3v-8h-1v-2
					h1V5h-1V0h-4v5h-1v7h1v2h-3V2h1v-3h-0.6H608v-6.7c1.1-0.5,2-1.7,2-3.2c0-1.7-3-3.3-3-3.3V-22h3v-1h-3v-5h-1v5h-3v1h3v7.8
					c-1.6,0.3-2.8,1.7-2.8,3.3c0,1.4,2.8,3.2,2.8,3.2V-1h-2.1H603v3h1v12h-3v-2h1V5h-1V0h-4v5h-1v7h1v2h-1v8h3v18h-3v-4h1v-7h-1v-5
					h-4v5h-1v7h1v4h-3v3h-3v3h4v3h-4v3h4v29h-4v4h4v4h-4v3h4v2h-4v2h4v1h-4v2h4v12h-18v-4h5.6l-7.6-3.1V101h1v-4h-1v-4h-1v-4h-2v4h1
					v4h-2v4h1v1.8l-4-1.8v-5h2v-5h-2v-6h-1v-6h-1v6h-1v6h-2v5h2v3.5l-22-9.1V86h-4V70h-3V58c0.8-0.8,1.4-2,1.4-3.2
					c0-2.2-4.4-4.4-4.4-4.4V44h5v-1h-5v-8h-1v8h-4v1h4v6.4c-1.8,0.3-3.5,2.1-3.5,4.4c0,1.3,1.5,3.2,1.5,3.2v12h-3v16h-4v4.2l-22,9.1
					V96h2v-5h-2v-6h-1v-6h-1v6h-1v6h-2v5h1v4.9l-4,1.8V101h2v-4h-1v-4h-2v-4h1v4h-2v4h-1v4h1v2.9l-7.7,3.1h4.7v4h-17V99h3v-2h-3v-1
					h3v-2h-3v-2h3v-3h-3v-5h3v-3h-3V53h3v-3h-3v-4h3v-3h-2v-3h-3v-4h1v-7h-1v-5h-5v5h-1v7h1v4h-2V22h3v-8h-1v-2h1V5h-1V0h-4v5h-1v7
					h1v2h-3V2h1v-3h-1h-1v-6.7c0.8-0.5,1.7-1.7,1.7-3.2c0-1.7-2.7-3.3-2.7-3.3V-22h3v-1h-3v-5h-2v5h-3v1h4v7.8
					c-1.9,0.3-3.1,1.7-3.1,3.3c0,1.4,0.9,2.7,2.1,3.2V-1h-1.5H445v3h1v12h-3v-2h1V5l0,0V0h-4v5h-1v7h1v2h-1v8h3v18h-3v-4h1v-7h-1v-5
					h-5v5h-1v7h1v4h-2v3h-3v3h3v4h-3v3h3v28h-3v3h3v5h-3v3h3v2h-3v2h3v1h-3v2h3v15h-3v2h3v3h-3v3h3v2h-3v2h3v2h-3v2h3v47h-23v36h-27
					v-60h-48v60h-24v-18h-63v18h-38v-6h-80v-12h-28v-18H81v-48H0v84v6.5V256v26.1V684h1200V256H1178z"/>
				<linearGradient id="SVGID_5_" gradientUnits="userSpaceOnUse" x1="600" y1="593.004" x2="600" y2="219.3397">
					<stop  offset="0" style="stop-color:#FFFFFF"/>
					<stop  offset="8.266079e-02" style="stop-color:#FFFFFF;stop-opacity:0.9173"/>
					<stop  offset="1" style="stop-color:#FFFFFF;stop-opacity:0"/>
				</linearGradient>
				<rect y="197" class="st5" width="1200" height="487"/>
				<path class="st6" d="M1200,213.1l-5.4-0.4L1077,259v82h-28v69h-21v-26h-55v-83.4l-9-3.5v-27.2l-9-4.1v-28.2l-11-6.1v-27
					l-14-10.2v-6.7l0.2,0c-0.1-0.3-0.1-0.6-0.2-0.9v-5.7l-0.6,0.5c-0.3-3.5-0.3-7.2-0.3-10.8c1.9-1.9,3.7-4,5.3-5.9
					c4.8,0.6,8.7,1.8,8.8,1.8l0.6-1.9c2.4,0,4.2,0,4.2,0l0-1.9c0,0-2.5,0-5.7,0c-1.4-0.4-3.4-0.8-5.8-1.2c0.9-1.3,1.5-2.3,1.7-2.9
					c0.2-1-0.2-1.4-0.5-1.5c-0.4-0.2-1.3-0.7-6.1,3.9c-0.8,0-1.6-0.1-2.4-0.1c0.3-4.4,0.7-7.4,0.7-7.5l-3.2-0.4
					c0,0.3-0.4,3.5-0.7,8.1c-3.6,0.4-7.1,1.4-9.8,3.6c-1,0.8-3.5,2.9-2.5,5.1c0.7,1.6,3.2,2.1,6.3,2.1c0.2,0,0.4,0,0.6,0
					c-1.2,1.4-2.3,3.1-1.3,4.5c0.1,0.2,0.4,0.5,1,0.5c0.1,0,0.2,0,0.4,0c1-0.2,2.7-1.5,4.8-3.4c0,3.5,0.2,7.1,0.5,10.4l-4,3.4v9
					l-17,7.7V233l-1,0.2V229h-2v4.7l-1,0.4V230h-2v4.6l-1,0.4v-4h-2v4.5l-1,0.4V233h-2v3.3l-1,0.3v28.7l-12,4.3V297l-12,2.8V410h-39
					v-8h-50v8h-30v-26h-24v-20h-84v20h-35v26h-47.8c0,0,0.4-7.6,0.9-20h4.9v-7h-4.8c0.1-3.7,0.2-7.7,0.3-12h4.5v-7h-4.1
					c0.1-3.2,0.1-6.6,0.2-10h3.9v-7h-4c0-3.6,0-7.3,0-11h4l1-7h-4c0-3.6-0.1-7.3-0.1-11h4.1v-6h-4.8c-0.1-3.7-0.1-6.9-0.2-10h3v-7
					h-3.2c-0.1-3.2-0.3-6.5-0.4-10h3.7v-7h-4c-0.1-2-0.3-4.4-0.5-7h1.5v-7h-2c-0.2-2.3-0.5-5.1-0.8-8h1.8v-7h-2.2
					c-0.3-2.4-0.6-4.7-0.9-7h0.1v-7h-2.6c-0.5-2.7-1-5.4-1.5-7.9c0,0-3.1-19.7-24.4-53.6c-2.8-5.4-6.4-12.1-9.6-17
					c0.2-0.3,0.4-0.6,0.4-1c0-0.9-0.8-1.7-1.7-1.7c-0.9,0-1.7,0.8-1.7,1.7c0,0.9,0.8,1.7,1.7,1.7c0,0,0.1,0,0.1,0
					c3.5,5.4,7.6,13.1,10.4,18.7c-1,5.8-4,21.9-10.8,36c0,0-7.2,3.3-17.3,9.2v-0.6l-32,16.2v5.1c-12,9.9-23.1,21.7-29,34.4V288h2.6
					l-0.3,9H438v5h2.2l-0.3,8H438v6h1.7l-0.3,8H436v5h3.2l-0.3,9H436v5h2.9l-0.3,9H436v6h2.7l-0.3,10H435v5h3.1l-0.3,8H435v5h2.6
					l-0.3,8H435v6h2.3l-0.3,10h-35v-15H301v15h-77V299h3v-19h-3v-21h-6v11h-7v-11h-5v11h-7v-11h-5v11h-7v-11h-5v11h-7v-11h-5v11h-7
					v-11h-5v11h-7v-11h-5v11h-7v-11h-5v21h-4v19h4v63h-3v4h-5v-4h-4v4h-5v-4h-4v4h-4v-4h-4v4h-5v-4h-4v4h-5v-4h-4v4h-5v-4h-4v4h-5
					v-4h-3v-63h3v-19h-3v-21h-6v11h-7v-11h-5v11h-7v-11h-5v11h-7v-11h-5v11h-7v-11h-5v11H9v-11H4v11H0v414h1200V213.1z M936.4,159.1
					c-0.3,0.6-0.8,1.3-1.5,2.2c-0.3,0-0.7-0.1-1-0.1C934.9,160.3,935.8,159.6,936.4,159.1z M928.9,163.8c1.1,0,2.1,0,3.1,0.1l0,0.1
					c0,0,0.1,0,0.1,0c-1.1,1.2-2.3,2.5-3.5,3.8C928.7,166.4,928.8,165.1,928.9,163.8z M920.6,175.5c-0.2-0.8,1.1-2.3,2.5-3.6
					c0.8-0.1,1.5-0.2,2.3-0.3C923.3,173.7,921.5,175.2,920.6,175.5z M925.7,168.3c-3.8,0.5-7.4,0.6-8.7,0.2c0.2-0.3,0.6-0.7,1.3-1.3
					c2-1.7,4.7-2.5,7.6-2.9C925.8,165.7,925.7,167,925.7,168.3z"/>
				<linearGradient id="SVGID_6_" gradientUnits="userSpaceOnUse" x1="600" y1="647.7266" x2="600" y2="434.4233">
					<stop  offset="0" style="stop-color:#FFFFFF"/>
					<stop  offset="8.266079e-02" style="stop-color:#FFFFFF;stop-opacity:0.9173"/>
					<stop  offset="1" style="stop-color:#FFFFFF;stop-opacity:0"/>
				</linearGradient>
				<rect y="406" class="st7" width="1200" height="278"/>
				<g>
					<rect x="1025" y="508" class="st8" width="4" height="2"/>
					<path class="st8" d="M1012,506h-0.3c1.2-0.7,2-2.1,1.7-3.7c-0.3-1.3-1.3-2.4-2.6-2.7c-2.3-0.5-4.3,1.2-4.3,3.4
						c0,1.3,0.7,2.4,1.8,3h-0.3v4h2.4h1.6V506z"/>
					<path class="st8" d="M1173,562v-1.2V552h4v-2h-5v-2h7v-1h2v-2h-2v-22.3l0.6,0.7l2.1-1.8l-8.7-10.6l-1,0.9v-61.2
						c0.4,0,0.8-0.1,1.1-0.4l6.1-5.8c0.4-0.4,0.5-0.9,0.4-1.4c-0.1-0.3-0.3-0.6-0.6-0.8v-13.5c0-0.4-0.2-0.7-0.6-0.8l-6.2-1.8
						c-0.1,0-0.2,0-0.3,0V426h-1v-0.5l-7-2.1V423h0.1l-1.1-0.2v0.2h-1v-0.5l1,0v-24.7l2,0.9v-16.9l0.6-0.1l0.2-1.2
						c0-0.2,0-0.3,0-0.5c0-3.7-3.6-6.7-8-6.7c-4.4,0-7.9,3-8,6.6l-2.9,3l-4.1-6.9l-3.8,4l-4.1-6.9l-3.8,4l-4.1-6.9l-3.8,4l-4.1-6.9
						l-3.8,4l-4.1-6.9l-4.2,4.5V360h2.4l0.1-1.6c0-0.2,0-0.4,0-0.5c0-4.2-3.7-8.1-6.9-9.3c0.9-0.3,1.5-0.9,1.5-1.7
						c0-0.9-0.8-1.5-2.2-1.8V341h-3v4.1c-0.7,0.3-1.4,0.9-1.4,1.8c0,0.6,2.4,1.5,2.4,1.5v0.2c0,0-8.2,5.1-8.2,9.3c0,0.2,0,0.4,0,0.5
						l0.1,1.6h2.1v8.7l-4.2-3.9l-4.1,6.8l-3.8-4l-4.1,6.8l-3.8-4l-4.1,6.8l-3.8-4l-4.1,6.8l-3.8-4l-4.1,6.8l-2.8-3
						c-0.1-3.6-3.6-6.6-7.9-6.6c-4.4,0-7.9,3-7.9,6.7c0,0.2,0,0.3,0.1,0.5l0.1,1.5h0.2v16.7l3-0.9v24.7l1,0v0.5h-2v-0.2l-0.3,0.2
						h0.3v0l-7,2.1v0.9h-1v0.1c-0.1,0-0.2,0-0.3,0l-6.2,1.8c-0.3,0.1-0.6,0.4-0.6,0.8v13.5c-0.3,0.2-0.5,0.5-0.6,0.8
						c-0.1,0.5,0,1,0.4,1.4l6.1,5.8c0.3,0.3,0.7,0.4,1.1,0.4l0-0.4V471l-1.6-0.9l-10.3,12.2l2.2,1.8l1.7-2.3V504h-2v2h2v1h8v23h-3
						v10h-6v-18h-0.5c0,0,0.1-0.7,0.1-1c0-5.5-4.4-9.9-9.9-9.9c-5.5,0-9.9,4.4-9.9,9.9c0,0.2,0.1,0.5,0.1,1h0.3v9h-5v-1h-1v1h-2.1
						c-0.1-2.1-1.7-3.8-3.9-4.2v-1c0.4-0.3,0.8-0.7,0.8-1.3c0-0.9-0.8-1.6-1.8-1.6s-1.8,0.7-1.8,1.6c0,0.5,0.3,1,0.8,1.3v0.3
						c-1.7,0.5-3,2.2-3,4.2v8.6h-6v-8h-6v8h-7v-8h-6v8h-6v-8h-6v8h-1.1c0,0-1.6-1.1-2.9-1.3v-1.5c1-0.5,1.4-1.2,1.4-2
						c0-1.4-1.1-2.5-2.5-2.5c-0.3,0-0.9,0.2-0.9,0.2V531h-6v8h-7v7h-1v1.6v4.6v9.8h-37v-57h-13v-19h-76v20h-10v33h-51V408h-50v154
						h-26v-15h-16v-15h-52v15h-14v15h-46v-24H420v24h-12v-7h-5V406h4v-7h14v-16h-5v-11.9l-160.5-66.2L95,371.1V383h-4v16h12v7h4v149
						h-3v7H91v-31H69v-20H52v-85H0v135.7v16.2V684h1200V562H1173z M1172,514.4l4.7,5.6h-4.7V514.4z M1026.3,443.7l0.1,0l0.9,1.1
						L1026.3,443.7z M1040.6,421.9l0,0.1l-0.3,0.1L1040.6,421.9z M1024.2,479l4.8-5.6v5.6H1024.2z M341,406h4v-7h31v7h4v41h-39V406z
						 M341,452h39v2h-39V452z M341,457h39v98h-39V457z M289,406h4v-7h31v7h4v41h-39V406z M289,452h39v2h-39V452z M289,457h39v98h-9
						v-82h-22v82h-8V457z M236,406h4v-7h31v7h4v41h-39V406z M236,452h39v2h-39V452z M236,457h39v98h-8v-81h-22v81h-9V457z M184,406
						h4v-7h31v7h4v41h-39V406z M184,452h39v2h-39V452z M184,457h39v98h-9v-82h-22v82h-8V457z M132,406h4v-7h31v7h4v41h-39V406z
						 M132,452h39v2h-39V452z M132,457h39v98h-39V457z"/>
				</g>
			</g>
		</g>
	</g>
</g>
</svg>
