<?xml version="1.0" encoding="utf-8"?>
<!-- Generator: Adobe Illustrator 21.1.0, SVG Export Plug-In . SVG Version: 6.00 Build 0)  -->
<svg version="1.1" id="Capa_1" xmlns="http://www.w3.org/2000/svg" xmlns:xlink="http://www.w3.org/1999/xlink" x="0px" y="0px"
	 viewBox="0 0 1200 800" style="enable-background:new 0 0 1200 800;" xml:space="preserve">
<style type="text/css">
	.st0{fill:url(#SVGID_1_);}
	.st1{fill:#91C7EE;}
	.st2{fill:url(#SVGID_2_);}
	.st3{fill:#5190C5;}
	.st4{fill:url(#SVGID_3_);}
	.st5{fill:#4172A7;}
	.st6{fill:url(#SVGID_4_);}
	.st7{fill:#305689;}
</style>
<linearGradient id="SVGID_1_" gradientUnits="userSpaceOnUse" x1="600.0434" y1="344" x2="600.0434" y2="-1.6152">
	<stop  offset="0" style="stop-color:#BEE4FD"/>
	<stop  offset="1" style="stop-color:#9FDFF7"/>
</linearGradient>
<rect x="0.1" class="st0" width="1199.9" height="800"/>
<g>
	<path class="st1" d="M1013.6,357.8V189.7l-9.5-9.9h-9V83l-2.1-2v-15h-8.3v7.1l-4.7-4.5V56.2h-11.3v24h-9.4v82.5l-16,4.8l-7.8,190.2
		H891v-16.6h30.4v-16.6H891v-20.8h-16.8v-10.9h-44.2v10.9h-24.2v-12.1h2.9v-4.4h-2.9v-22.5h2.9v-4.4h-2.9V238h2.9v-4.4h-2.9v-22.5
		h2.9v-4.4h-2.9v-22.1l11.1-11.5v-7.4l5.8-6V146H817v-12.1h-14.8v-20.7H817V101h-0.8V81.8c0-0.9,0-1.7,0-2.6c0-0.9,0-1.7,0-2.6
		c-2.4-1.5-4.9,1.5-7.3,0c0,1.7,0,3.5,0,5.2c2.1,1.2,4.1-0.7,6.2-0.4V101h-12V81.8c0-0.9,0-1.7,0-2.6c0-0.9,0-1.7,0-2.6
		c-2.4-1.5-4.9,1.5-7.3,0c0,1.7,0,3.5,0,5.2c2.1,1.2,4.1-0.7,6.2-0.4V101h-12V81.8c0-0.9,0-1.7,0-2.6c0-0.9,0-1.7,0-2.6
		c-2.4-1.5-4.9,1.5-7.3,0c0,1.7,0,3.5,0,5.2c2.1,1.2,4.1-0.7,6.2-0.4V101h-12V81.8c0-0.9,0-1.7,0-2.6c0-0.9,0-1.7,0-2.6
		c-2.4-1.5-4.9,1.5-7.3,0c0,1.7,0,3.5,0,5.2c2.1,1.2,4.1-0.7,6.2-0.4V101h-12V81.8c0-0.9,0-1.7,0-2.6c0-0.9,0-1.7,0-2.6
		c-2.4-1.5-4.9,1.5-7.3,0c0,1.7,0,3.5,0,5.2c2.1,1.2,4.1-0.7,6.2-0.4V101h-0.6v12.2h14.8v20.7h-14.8V146H756v13.7l5.8,6v7.4
		l11.1,11.5v22.1H770v4.4h2.9v22.5H770v4.4h2.9v22.5H770v4.4h2.9v22.5H770v4.4h2.9v12.1h-59v54H272l-7.4-145.2c0-0.2,0-0.4,0-0.6
		c-1.1-4.7-18.6-4.6-39.9,0h-25.2v7.3c-0.8,0.3-1.7,0.6-2.5,1v-27.1h12.3v-21.7h-9.9v-10.8h-8.9v-28.1h-2v-46h-1.5v27.9h-14.8v9.2
		h14.8v8.9h-2v8.5c-6.7,5.1-46.4,37.9-55.9,108.8c-10.4,77.2,22,106.2,23.4,107.4l0.6,0.5H0.1v443h1201.4v-443H1013.6z M185.2,146.7
		v13.9h-10.8v10.8h-9.9v19.2h-12.7C164.1,166.3,178.7,152.2,185.2,146.7z M136.5,305.7l21.8-10.9l19.5,10.9H136.5z M177.3,310.1
		l-16.9,12.6L138,310.1H177.3z M156.2,290.9l-17-9.6h33.1L156.2,290.9z M138.1,276.9l21.4-10.7l19.1,10.7H138.1z M157.3,262.4
		l-18-10.1h35L157.3,262.4z M139.8,247.8l21.2-10.9l17,10.9H139.8z M144.9,218.5l20.6-10.5l13.2,10.5H144.9z M175.1,223l-16.3,10
		l-15.7-10H175.1z M163.8,203.8l-11-8.7h25.1L163.8,203.8z M149.5,195.4l12.2,9.7L140.8,218C143.4,209.7,146.3,202.2,149.5,195.4z
		 M139.3,223.1l17.5,11.2l-22,13.6h-0.7C135.4,239,137.2,230.8,139.3,223.1z M133.5,252.3h1.3l20.4,11.4L133,276.9h-1.3
		C131.8,269.4,132.4,261.2,133.5,252.3z M131.8,281.4h2.8l19.4,10.9l-20.2,12.1C132.6,297.5,131.9,289.8,131.8,281.4z M135,310.9
		l23.5,13.2l-15.3,11.4C140.1,329.2,137.1,321.1,135,310.9z M178.8,353.3h-23.8c-1.3-1.3-4.9-5.2-8.9-12.1h32.6V353.3z M178.8,336.8
		h-33.1l16.7-10.4l16.4,9.2V336.8z M178.8,333l-14.2-8l14.2-8.9V333z M178.8,313.5l-15,9.4l15-11.2V313.5z M178.8,303.7l-18.1-10.2
		l18.1-9.1V303.7z M178.8,282l-20.4,10.2l0,0l18.2-10.8h2.3V282z M178.8,274.5l-16.9-9.5l16.9-8.5V274.5z M178.8,254l-19.2,9.6l0,0
		l19.1-11.4h0.2V254z M178.8,245.7l-15.6-9.9l15.6-8V245.7z M178.8,225.3l-17.8,9.1l-0.1-0.1l17.9-11l-0.2-0.3h0.2V225.3z
		 M178.8,215.8l-11.2-8.9l11.2-5.7V215.8z M178.8,198.7l-13.1,6.7l-0.2-0.1l13.2-8.1V198.7z"/>
	<linearGradient id="SVGID_2_" gradientUnits="userSpaceOnUse" x1="600.7639" y1="489.574" x2="600.7639" y2="-57.2851">
		<stop  offset="0" style="stop-color:#FFFFFF"/>
		<stop  offset="8.266079e-02" style="stop-color:#FFFFFF;stop-opacity:0.9173"/>
		<stop  offset="1" style="stop-color:#FFFFFF;stop-opacity:0"/>
	</linearGradient>
	<rect x="0" y="88.1" class="st2" width="1201.5" height="712.7"/>
	<path class="st3" d="M1179.5,372.1v-40.3h2.7v-42.9h-2.7v-3.7h2.7v-3.8h-2.7v-2.5h2.7v-3.8h-4.4v-4.4h-18.1v4.4h-10.9v-4.4h-18.1
		v4.4h-9.8v-2.8h-2.2v-35.9v-8.8h-1.2V220h-1.8v7.5h-1v8.8h-0.1c-1.2-17.4-11.7-31.8-25.9-36.7v-14.7h2.3v-4.7h-4.1
		c0-0.1,0-0.2,0-0.3c0-4.4-3.3-8.1-7.6-8.7v-10.1h3.6v-2.5h-3.6V152h-2.5v6.6h-3.6v2.5h3.6v10.1c-4.3,0.6-7.6,4.3-7.6,8.7
		c0,0.1,0,0.2,0,0.3h-4.1v4.7h2.3v14.7c-14.2,4.9-24.7,19.3-25.9,36.7h-0.1v-8.8h-1.2V220h-1.8v7.5h-1v8.8v35.9h-2.2v2.8h-10.3v-4.4
		h-18.1v4.4h-10.9v-4.4h-18.1v4.4h-4v3.8h2.7v2.5h-2.7v3.8h2.7v3.7h-2.7v42.9h2.7v3.8H791.7v-42.9H726V279h-21.8v-10.4h-62.6V279
		h-17.5v-33.5h3.3v-2h-3.3v-1.2h3.3v-2h-3.3v-1.9h3.3v-3.2h-3.3v-3.2h3.3v-1.6h-3.3V215h3.3v-2h-3.3v-1.2h3.3v-2h-3.3V208h3.3v-3.2
		h-3.3v-4.4h3.3v-3.2h-3.3v-28.6h3.3v-3.2h-3.3v-3.2h3.3v-3.2h-2.6v-3.3H622v-3.6h1.4v-7.1H622v-5.2h-4.3v5.2h-1.4v7.1h1.4v3.6h-2.6
		v-17.9h2.9V130h-1.3v-2.5h1v-7.2h-1v-4.2h-3.6v4.2h-1v7.2h1v2.5h-3.1v-12h1.2v-3.5h-1.2h-1.5v-6.4c1.3-0.5,2.1-1.7,2.1-3.2
		c0-1.7-1.2-3.1-2.8-3.4v-7.5h3.3v-1.3h-3.3v-4.8h-1.3v4.8h-3.3v1.3h3.3v7.5c-1.6,0.3-2.8,1.7-2.8,3.4c0,1.4,0.9,2.7,2.1,3.2v6.4
		h-1.5h-1.2v3.5h1.2v12h-3.1v-2.5h1v-7.2h-1v-4.2h-3.6v4.2h-1v7.2h1v2.5h-1.3v7.8h2.9v17.9h-2.6v-3.6h1.4v-7.1h-1.4v-5.2h-4.3v5.2
		h-1.4v7.1h1.4v3.6h-2.7v3.3h-2.6v3.2h3.3v3.2h-3.3v3.2h3.3v28.6h-3.3v3.2h3.3v4.4h-3.3v3.2h3.3v1.9h-3.3v2h3.3v1.2h-3.3v2h3.3v11.6
		h-17.4v-3.6h5l-7.5-3.1v-2.9h1.3V213h-1.3v-4.2h-0.9v-4.4h-0.8v4.4h-0.9v4.2h-1.3v3.9h1.3v1.8l-4.2-1.8V212h1.8v-5.3h-1.8v-5.7
		h-1.2v-6h-1v6h-1.2v5.7h-1.8v5.3h1.8v3.5l-22-9.1v-4.2h-3.7v-16.1h-3.3v-12.3c0.9-0.8,1.4-2,1.4-3.2c0-2.2-1.7-4.1-3.8-4.4v-6.6
		h4.6v-1.3h-4.6v-8h-1.3v8h-4.6v1.3h4.6v6.6c-2.2,0.3-3.8,2.1-3.8,4.4c0,1.3,0.6,2.4,1.4,3.2v12.3h-3.3v16.1h-3.7v4.2l-22,9.1V212
		h1.8v-5.3h-1.8v-5.7h-1.2v-6h-1v6h-1.2v5.7h-1.8v5.3h1.8v4.9l-4.2,1.8v-1.8h1.3V213h-1.3v-4.2H488v-4.4h-0.8v4.4h-0.9v4.2H485v3.9
		h1.3v2.9l-7.5,3.1h5v3.6h-17.4V215h3.3v-2h-3.3v-1.2h3.3v-2h-3.3V208h3.3v-3.2h-3.3v-4.4h3.3v-3.2h-3.3v-28.6h3.3v-3.2h-3.3v-3.2
		h3.3v-3.2h-2.6v-3.3h-2.7v-3.6h1.4v-7.1h-1.4v-5.2h-4.3v5.2h-1.4v7.1h1.4v3.6h-2.6v-17.9h2.9V130h-1.3v-2.5h1v-7.2h-1v-4.2h-3.6
		v4.2h-1v7.2h1v2.5h-3.1v-12h1.2v-3.5h-1.2H451v-6.4c1.3-0.5,2.1-1.7,2.1-3.2c0-1.7-1.2-3.1-2.8-3.4v-7.5h3.3v-1.3h-3.3v-4.8h-1.3
		v4.8h-3.3v1.3h3.3v7.5c-1.6,0.3-2.8,1.7-2.8,3.4c0,1.4,0.9,2.7,2.1,3.2v6.4H447h-1.2v3.5h1.2v12h-3.1v-2.5h1v-7.2h-1v-4.2h-3.6v4.2
		h-1v7.2h1v2.5h-1.3v7.8h2.9v17.9h-2.6v-3.6h1.4v-7.1h-1.4v-5.2H435v5.2h-1.4v7.1h1.4v3.6h-2.7v3.3h-2.6v3.2h3.3v3.2h-3.3v3.2h3.3
		v28.6h-3.3v3.2h3.3v4.4h-3.3v3.2h3.3v1.9h-3.3v2h3.3v1.2h-3.3v2h3.3v15.6h-3.3v1.6h3.3v3.2h-3.3v3.2h3.3v1.9h-3.3v2h3.3v1.2h-3.3v2
		h3.3v47.2h-23.1V329h-27.6v-60.4h-47.9V329H311v-17.8h-63.5V329h-38.3v-5.6h-80v-12.2h-27.8v-18.3H80.9V245H0.1V329v6.6v36.5v26.1
		v402.6h1201.4V372.1H1179.5z"/>
	<linearGradient id="SVGID_3_" gradientUnits="userSpaceOnUse" x1="600.7639" y1="709.6274" x2="600.7639" y2="335.2718">
		<stop  offset="0" style="stop-color:#FFFFFF"/>
		<stop  offset="8.266079e-02" style="stop-color:#FFFFFF;stop-opacity:0.9173"/>
		<stop  offset="1" style="stop-color:#FFFFFF;stop-opacity:0"/>
	</linearGradient>
	<rect x="0" y="312.9" class="st4" width="1201.5" height="487.9"/>
	<path class="st5" d="M1201.5,329.3l-5.4-0.4l-117.9,46.3v81.5h-28v69.4H1029v-25.7h-54.8v-83.5l-9.2-3.5v-27.4l-9-4.1v-28.2
		l-11.1-6.1v-27l-14-10.2v-6.4l0.2,0c-0.1-0.3-0.1-0.6-0.2-0.9v-5.9l-0.7,0.6c-0.3-3.6-0.3-7.4-0.3-11.1c1.9-2,3.8-4.1,5.5-6
		c5,0.6,9,1.8,9,1.8l0.6-2c2.5,0,4.3,0,4.3,0l0-1.6c0,0-2.6,0-5.8,0c-1.4-0.4-3.5-0.8-5.9-1.2c0.9-1.3,1.6-2.3,1.7-2.9
		c0.2-1-0.2-1.4-0.5-1.5c-0.4-0.2-1.4-0.7-6.1,3.9c-0.8,0-1.6-0.1-2.4-0.1c0.3-4.4,0.7-7.5,0.7-7.6l-3.2-0.4c0,0.3-0.4,3.6-0.7,8.1
		c-3.7,0.4-7.2,1.4-9.9,3.6c-1,0.8-3.5,2.9-2.5,5.2c0.7,1.6,3.3,2.2,6.4,2.2c0.2,0,0.4,0,0.6,0c-1.3,1.4-2.3,3.2-1.3,4.6
		c0.1,0.2,0.4,0.5,1,0.5c0.1,0,0.2,0,0.4,0c1-0.2,2.7-1.5,4.8-3.4c0,3.5,0.2,7.1,0.5,10.5l-4,3.4v8.8l-17.5,7.9V349l-0.8,0.2v-4.2
		h-1.6v4.7l-1.4,0.4v-4h-1.6v4.5l-1.5,0.4v-3.6h-1.6v4.1l-1.4,0.4v-2.8h-1.6v3.3l-1.1,0.3v28.5l-12.6,4.5v27.3l-11.8,2.8v110.2
		h-38.6v-7.5h-50.2v7.5h-30.2v-25.7h-24.4v-20.3h-83.6v20.3H607v25.7h-47.8c0,0,0.4-7.7,0.9-20.2h4.9V499h-4.7
		c0.1-3.6,0.2-7.6,0.3-11.7h4.4v-6.9h-4.2c0.1-3.3,0.1-6.8,0.2-10.3h4v-6.9h-4c0-3.6,0-7.2,0-10.9h3.9v-6.9h-3.9
		c0-3.6-0.1-7.2-0.1-10.9h4.1v-6.9h-4.2c-0.1-3.2-0.1-6.4-0.2-9.6h2.6v-6.8h-2.8c-0.1-3.3-0.3-6.6-0.4-9.9h3.1v-6.9h-3.5
		c-0.1-2.4-0.3-4.8-0.5-7.1h1.6v-6.8h-2.1c-0.2-2.8-0.5-5.6-0.8-8.3h1.4v-6.9H557c-0.3-2.4-0.6-4.8-0.9-7.1h0.8v-6.8H555
		c-0.5-2.7-1-5.4-1.5-7.9c0,0-3.1-19.7-24.7-53.7c-2.8-5.4-6.4-12.1-9.7-17c0.2-0.3,0.4-0.6,0.4-1.1c0-0.9-0.8-1.7-1.7-1.7
		c-0.9,0-1.7,0.8-1.7,1.7c0,0.9,0.8,1.7,1.7,1.7c0,0,0.1,0,0.1,0c3.6,5.4,7.7,13.1,10.6,18.7c-1,5.9-4.1,22-10.9,36.1
		c0,0-7.3,3.4-17.6,9.2V337l-32.4,16.2v6.3c-11.9,9.7-22.9,21.2-28.8,33.6v11.5h2.6l-0.3,8.8h-2.3v5.1h2.1l-0.3,7.8h-1.9v5.8h1.7
		l-0.3,8.1h-3.5v5.2h3.3l-0.3,9.3h-3v5.1h2.8l-0.3,8.8h-2.5v5.4h2.4l-0.3,9.8h-3.4v5.1h3.2l-0.3,8.5h-3v5.1h2.8l-0.3,8.5h-2.5v5.1
		h2.4l-0.3,10.1h-34.7v-15.3H301.6v15.3h-77.9V415.5h3.5v-19.4h-3.5v-20.4h-5.3v11h-6.8v-11h-5.3v11h-6.8v-11h-5.3v11h-6.8v-11h-5.3
		v11h-6.8v-11H170v11h-6.8v-11h-5.3v11h-6.8v-11h-5.3v11H139v-11h-5.3v20.4h-4.1v19.4h4.1v62.2h-2.5v4.4h-5v-4.4h-3.8v4.4h-5v-4.4
		h-3.8v4.4h-5v-4.4h-3.8v4.4h-5v-4.4h-3.8v4.4h-5v-4.4H87v4.4h-5v-4.4h-3.8v4.4h-5v-4.4h-3.7v-62.2H73v-19.4h-3.5v-20.4h-5.3v11
		h-6.8v-11h-5.3v11h-6.8v-11H40v11h-6.8v-11h-5.3v11h-6.8v-11h-5.3v11H9v-11H3.7v11H0.1v414.2h1201.4V329.3z M937.5,275.1
		c-0.3,0.6-0.8,1.3-1.5,2.2c-0.3,0-0.7-0.1-1-0.1C936,276.3,936.8,275.6,937.5,275.1z M930.2,280.2c1.1,0,2.1,0,3.1,0.1l0,0.1
		c0,0,0.1,0,0.1,0c-1.1,1.2-2.3,2.5-3.5,3.8C930.1,282.8,930.1,281.5,930.2,280.2z M921.7,291.5c-0.2-0.8,1.1-2.3,2.5-3.6
		c0.8-0.1,1.5-0.2,2.3-0.3C924.4,289.7,922.5,291.3,921.7,291.5z M926.7,284.4c-3.8,0.5-7.4,0.6-8.7,0.2c0.2-0.3,0.6-0.7,1.3-1.3
		c2-1.7,4.7-2.5,7.6-2.9C926.8,281.7,926.8,283,926.7,284.4z"/>
	<linearGradient id="SVGID_4_" gradientUnits="userSpaceOnUse" x1="600.7639" y1="764.5168" x2="600.7639" y2="551.2054">
		<stop  offset="0" style="stop-color:#FFFFFF"/>
		<stop  offset="8.266079e-02" style="stop-color:#FFFFFF;stop-opacity:0.9173"/>
		<stop  offset="1" style="stop-color:#FFFFFF;stop-opacity:0"/>
	</linearGradient>
	<rect x="0" y="522.8" class="st6" width="1201.5" height="278"/>
	<g>
		<rect x="1026.2" y="625.1" class="st7" width="4.5" height="1.6"/>
		<path class="st7" d="M1013.5,622.8h-0.3c1.1-0.6,1.8-1.8,1.8-3.2c0-2-1.6-3.7-3.7-3.7c-2,0-3.7,1.6-3.7,3.7c0,1.4,0.7,2.5,1.8,3.2
			h-0.3v4.2h2.5h1.7V622.8z"/>
		<path class="st7" d="M1173.6,678.6v-1.3v-8.6h4.5V667h-4.5v-2.8h7.3v-0.6h1.7V662h-1.7v-22.4l0.6,0.7l2.2-1.8l-9-10.7l-1.1,0.9
			v-62.2c0.4,0,0.7-0.1,1-0.4l5.8-5.8c0.4-0.4,0.5-0.9,0.4-1.4c-0.1-0.3-0.3-0.6-0.6-0.8v-13.6c0-0.4-0.2-0.7-0.6-0.8l-5.8-1.8
			c-0.1,0-0.2,0-0.2,0v-0.1h-1.5v-0.5l-6.7-2.1v0h0l-0.8-0.3v0.3h-0.7v-0.5l-0.1,0v-24.7l2.7,0.9v-17l0.6-0.1l0.2-1.2
			c0-0.2,0-0.3,0-0.5c0-3.7-3.6-6.7-8-6.7c-4.3,0-7.9,3-7.9,6.6l-2.8,3l-4.1-6.8l-3.8,4l-4.1-6.8l-3.8,4l-4.1-6.8l-3.8,4l-4.1-6.8
			l-3.8,4l-4.1-6.8l-4.2,4.4v-9.3h1.6l0.1-1.5c0-0.2,0-0.4,0-0.5c0-4.3-3.7-8.1-6.9-9.3c0.9-0.3,1.5-0.9,1.5-1.7
			c0-0.9-0.8-1.5-2-1.8v-4h-2.7v4c-1.2,0.3-1.9,0.9-1.9,1.8c0,0.6,0.4,1.1,1.1,1.5v0.2c-3.2,1.2-6.9,5.1-6.9,9.3c0,0.2,0,0.4,0,0.5
			l0.1,1.5h1.6v8.8l-3.7-3.9l-4.1,6.8l-3.8-4l-4.1,6.8l-3.8-4l-4.1,6.8l-3.8-4l-4.1,6.8l-3.8-4l-4.1,6.8l-2.8-3
			c-0.1-3.6-3.6-6.6-7.9-6.6c-4.4,0-8,3-8,6.7c0,0.2,0,0.3,0.1,0.5l0.1,1.3h0.7V515l2.7-0.9v24.7l-0.1,0v0.5h-0.7v-0.3l-0.8,0.3h0v0
			l-6.7,2.1v0.5h-1.5v0.1c-0.1,0-0.2,0-0.2,0l-5.8,1.8c-0.3,0.1-0.6,0.4-0.6,0.8v13.6c-0.3,0.2-0.5,0.5-0.6,0.8
			c-0.1,0.5,0,1,0.4,1.4l5.8,5.8c0.3,0.3,0.6,0.4,1,0.4h0v20.8l-1.1-0.9l-10.3,12.2l2.2,1.8l2-2.3v22.4h-1.7v1.6h1.7v0.6h7.3v23.5
			h-2.9v10.3h-6.1v-18.4h-0.1c0-0.2,0.1-0.5,0.1-0.7c0-5.5-4.5-9.9-9.9-9.9c-5.5,0-9.9,4.5-9.9,9.9c0,0.3,0.1,0.5,0.1,0.7h0.4v9.2
			h-4.5v-0.8h-1.3v-0.1h-2.7c-0.1-2.1-1.6-3.8-3.6-4.2v-1c0.4-0.3,0.7-0.7,0.7-1.3c0-0.9-0.7-1.6-1.6-1.6c-0.9,0-1.6,0.7-1.6,1.6
			c0,0.5,0.3,1,0.7,1.3v1.1c-1.9,0.5-3.3,2.2-3.3,4.2v8.6h-6.3v-7.8h-5.8v7.8h-6.4v-7.8h-5.8v7.8h-6.4v-7.8h-5.8v7.8H947
			c-0.8-0.5-1.6-0.9-2.6-1v-1.5c0.6-0.5,1.1-1.2,1.1-2c0-1.4-1.1-2.5-2.5-2.5c-0.3,0-0.6,0.1-0.8,0.2v-0.8h-5.8v7.8h-6.9v6.5h-1.3
			v2.6v4.5v9.7H891V622h-12.8v-19.5h-75.7V622h-10.8v32.9h-51.3V524.4h-49.6v154.2h-25.7v-15.3h-16.7v-15.3h-51.1v15.3h-14.4v15.3
			h-46.3v-23.6H421.1v23.6h-12.4v-7.1H404V522.3h3.9v-7.4h13.2v-15.6h-4.3v-11.9L256.1,421L95.5,487.3v11.9h-4.4v15.6h12.3v7.4h3.9
			v149.2h-3.1v7.1H91.1v-30.6H68.8v-20.4H51.7V543H0.1v135.6v16.1v106.1h1201.4V678.6H1173.6z M1173.6,631l4.8,5.6h-4.8V631z
			 M1027.5,560l0.1,0l0.9,1.1L1027.5,560z M1041.8,538.2l0,0.1l-0.3,0.1L1041.8,538.2z M1025.9,595.2l4.8-5.7v5.7H1025.9z
			 M341.2,522.3h3.9v-7.4h31.3v7.4h3.9v40.6h-39.1V522.3z M341.2,568.5h39.1v1.6h-39.1V568.5z M341.2,572.9h39.1v98.5h-39.1V572.9z
			 M288.9,522.3h3.9v-7.4h31.3v7.4h3.9v40.6h-39.1V522.3z M288.9,568.5H328v1.6h-39.1V568.5z M288.9,572.9H328v98.5h-8.1v-81.7h-22
			v81.7h-8.9V572.9z M236.6,522.3h3.9v-7.4h31.3v7.4h3.9v40.6h-39.1V522.3z M236.6,568.5h39.1v1.6h-39.1V568.5z M236.6,572.9h39.1
			v98.5h-8.6V590h-22v81.5h-8.5V572.9z M184.3,522.3h3.9v-7.4h31.3v7.4h3.9v40.6h-39.1V522.3z M184.3,568.5h39.1v1.6h-39.1V568.5z
			 M184.3,572.9h39.1v98.5h-9v-81.7h-22v81.7h-8V572.9z M132,522.3h3.9v-7.4h31.3v7.4h3.9v40.6H132V522.3z M132,568.5H171v1.6H132
			V568.5z M132,572.9H171v98.5H132V572.9z"/>
	</g>
</g>
</svg>
